<svg width="624" height="349" xmlns="http://www.w3.org/2000/svg" xmlns:xlink="http://www.w3.org/1999/xlink" xml:space="preserve" overflow="hidden"><g><text fill="#141413" font-family="Segoe UI,Segoe UI_MSFontService,sans-serif" font-weight="400" font-size="13" transform="matrix(0.917647 0 0 0.918421 167.228 20)">Customer demand </text><text fill="#141413" font-family="Segoe UI,Segoe UI_MSFontService,sans-serif" font-weight="400" font-size="13" transform="matrix(0.917647 0 0 0.918421 268.039 20)">— </text><text fill="#141413" font-family="Segoe UI,Segoe UI_MSFontService,sans-serif" font-weight="400" font-size="13" transform="matrix(0.917647 0 0 0.918421 283.237 20)">actuals and next</text><text fill="#141413" font-family="Segoe UI,Segoe UI_MSFontService,sans-serif" font-weight="400" font-size="13" transform="matrix(0.917647 0 0 0.918421 368.519 20)">-</text><text fill="#141413" font-family="Segoe UI,Segoe UI_MSFontService,sans-serif" font-weight="400" font-size="13" transform="matrix(0.917647 0 0 0.918421 373.29 20)">quarter forecast</text><text fill="#3D3D3A" font-family="Segoe UI,Segoe UI_MSFontService,sans-serif" font-weight="400" font-size="11" transform="matrix(0.917647 0 0 0.918421 43.323 59)">800</text><path d="M64.2353 55.0588 587.294 55.0588" stroke="#1F1E1D" stroke-width="0.458824" fill="none" transform="scale(1 1.00084)"/><text fill="#3D3D3A" font-family="Segoe UI,Segoe UI_MSFontService,sans-serif" font-weight="400" font-size="11" transform="matrix(0.917647 0 0 0.918421 43.323 106)">700</text><path d="M64.2353 105.529 587.294 105.529" stroke="#1F1E1D" stroke-width="0.458824" fill="none" transform="scale(1 1.00084)"/><text fill="#3D3D3A" font-family="Segoe UI,Segoe UI_MSFontService,sans-serif" font-weight="400" font-size="11" transform="matrix(0.917647 0 0 0.918421 43.323 156)">600</text><path d="M64.2353 156 587.294 156" stroke="#1F1E1D" stroke-width="0.458824" fill="none" transform="scale(1 1.00084)"/><text fill="#3D3D3A" font-family="Segoe UI,Segoe UI_MSFontService,sans-serif" font-weight="400" font-size="11" transform="matrix(0.917647 0 0 0.918421 43.323 207)">500</text><path d="M64.2353 206.471 587.294 206.471" stroke="#1F1E1D" stroke-width="0.458824" fill="none" transform="scale(1 1.00084)"/><text fill="#3D3D3A" font-family="Segoe UI,Segoe UI_MSFontService,sans-serif" font-weight="400" font-size="11" transform="matrix(0.917647 0 0 0.918421 43.323 257)">400</text><path d="M64.2353 55.0588 64.2353 256.941" stroke="#141413" stroke-width="0.734118" fill="none" transform="scale(1 1.00084)"/><path d="M64.2353 256.941 587.294 256.941" stroke="#141413" stroke-width="0.734118" fill="none" transform="scale(1 1.00084)"/><path d="M423.838 55.0588 423.838 256.941" stroke="#1F1E1D" stroke-width="0.458824" stroke-dasharray="2.75294 2.75294" fill="none" transform="scale(1 1.00084)"/><text fill="#73726C" font-family="Segoe UI,Segoe UI_MSFontService,sans-serif" font-weight="400" font-size="10.5" transform="matrix(0.917647 0 0 0.918421 401.484 48)">forecast </text><text fill="#73726C" font-family="Segoe UI,Segoe UI_MSFontService,sans-serif" font-weight="400" font-size="10.5" transform="matrix(0.917647 0 0 0.918421 437.88 48)">→</text><path d="M391.147 166.094 456.529 133.288 521.912 105.529 587.294 80.2941 587.294 161.047 521.912 166.094 456.529 168.618Z" fill="#1D9E75" fill-opacity="0.22" transform="scale(1 1.00084)"/><path d="M64.2353 246.847 129.618 231.706 195 216.565 260.382 201.424 325.765 186.282 391.147 166.094" stroke="#0F6E56" stroke-width="1.83529" fill="none" transform="scale(1 1.00084)"/><path d="M391.147 166.094 456.529 150.953 521.912 135.812 587.294 120.671" stroke="#0F6E56" stroke-width="1.83529" stroke-dasharray="4.58824 2.75294" fill="none" transform="scale(1 1.00084)"/><path d="M66.9882 246.847C66.9882 248.367 65.7557 249.6 64.2353 249.6 62.7149 249.6 61.4824 248.367 61.4824 246.847 61.4824 245.327 62.7149 244.094 64.2353 244.094 65.7557 244.094 66.9882 245.327 66.9882 246.847Z" fill="#0F6E56" transform="scale(1 1.00084)"/><path d="M132.371 231.706C132.371 233.226 131.138 234.459 129.618 234.459 128.097 234.459 126.865 233.226 126.865 231.706 126.865 230.185 128.097 228.953 129.618 228.953 131.138 228.953 132.371 230.185 132.371 231.706Z" fill="#0F6E56" transform="scale(1 1.00084)"/><path d="M197.753 216.565C197.753 218.085 196.52 219.318 195 219.318 193.48 219.318 192.247 218.085 192.247 216.565 192.247 215.044 193.48 213.812 195 213.812 196.52 213.812 197.753 215.044 197.753 216.565Z" fill="#0F6E56" transform="scale(1 1.00084)"/><path d="M263.135 201.424C263.135 202.944 261.903 204.176 260.382 204.176 258.862 204.176 257.629 202.944 257.629 201.424 257.629 199.903 258.862 198.671 260.382 198.671 261.903 198.671 263.135 199.903 263.135 201.424Z" fill="#0F6E56" transform="scale(1 1.00084)"/><path d="M328.518 186.282C328.518 187.803 327.285 189.035 325.765 189.035 324.244 189.035 323.012 187.803 323.012 186.282 323.012 184.762 324.244 183.529 325.765 183.529 327.285 183.529 328.518 184.762 328.518 186.282Z" fill="#0F6E56" transform="scale(1 1.00084)"/><path d="M393.9 166.094C393.9 167.615 392.667 168.847 391.147 168.847 389.627 168.847 388.394 167.615 388.394 166.094 388.394 164.574 389.627 163.341 391.147 163.341 392.667 163.341 393.9 164.574 393.9 166.094Z" fill="#0F6E56" transform="scale(1 1.00084)"/><path d="M459.282 150.953C459.282 152.473 458.05 153.706 456.529 153.706 455.009 153.706 453.776 152.473 453.776 150.953 453.776 149.433 455.009 148.2 456.529 148.2 458.05 148.2 459.282 149.433 459.282 150.953Z" stroke="#0F6E56" stroke-width="1.37647" fill="#FFFFFF" transform="scale(1 1.00084)"/><path d="M524.665 135.812C524.665 137.332 523.432 138.565 521.912 138.565 520.391 138.565 519.159 137.332 519.159 135.812 519.159 134.291 520.391 133.059 521.912 133.059 523.432 133.059 524.665 134.291 524.665 135.812Z" stroke="#0F6E56" stroke-width="1.37647" fill="#FFFFFF" transform="scale(1 1.00084)"/><path d="M590.047 120.671C590.047 122.191 588.815 123.424 587.294 123.424 585.774 123.424 584.541 122.191 584.541 120.671 584.541 119.15 585.774 117.918 587.294 117.918 588.815 117.918 590.047 119.15 590.047 120.671Z" stroke="#0F6E56" stroke-width="1.37647" fill="#FFFFFF" transform="scale(1 1.00084)"/><text fill="#3D3D3A" font-family="Segoe UI,Segoe UI_MSFontService,sans-serif" font-weight="400" font-size="11" transform="matrix(0.917647 0 0 0.918421 58.3553 273)">Jul</text><text fill="#3D3D3A" font-family="Segoe UI,Segoe UI_MSFontService,sans-serif" font-weight="400" font-size="11" transform="matrix(0.917647 0 0 0.918421 120.534 273)">Aug</text><text fill="#3D3D3A" font-family="Segoe UI,Segoe UI_MSFontService,sans-serif" font-weight="400" font-size="11" transform="matrix(0.917647 0 0 0.918421 186.712 273)">Sep</text><text fill="#3D3D3A" font-family="Segoe UI,Segoe UI_MSFontService,sans-serif" font-weight="400" font-size="11" transform="matrix(0.917647 0 0 0.918421 252.536 273)">Oct</text><text fill="#3D3D3A" font-family="Segoe UI,Segoe UI_MSFontService,sans-serif" font-weight="400" font-size="11" transform="matrix(0.917647 0 0 0.918421 316.614 273)">Nov</text><text fill="#3D3D3A" font-family="Segoe UI,Segoe UI_MSFontService,sans-serif" font-weight="400" font-size="11" transform="matrix(0.917647 0 0 0.918421 382.638 273)">Dec</text><text fill="#3D3D3A" font-family="Segoe UI,Segoe UI_MSFontService,sans-serif" font-weight="400" font-size="11" transform="matrix(0.917647 0 0 0.918421 449.304 273)">Jan</text><text fill="#3D3D3A" font-family="Segoe UI,Segoe UI_MSFontService,sans-serif" font-weight="400" font-size="11" transform="matrix(0.917647 0 0 0.918421 513.841 273)">Feb</text><text fill="#3D3D3A" font-family="Segoe UI,Segoe UI_MSFontService,sans-serif" font-weight="400" font-size="11" transform="matrix(0.917647 0 0 0.918421 578.44 273)">Mar</text><text fill="#3D3D3A" font-family="Segoe UI,Segoe UI_MSFontService,sans-serif" font-weight="400" font-size="11" transform="matrix(5.61896e-17 -0.918421 0.917647 5.6237e-17 20.1882 190)">Demand </text><text fill="#3D3D3A" font-family="Segoe UI,Segoe UI_MSFontService,sans-serif" font-weight="400" font-size="11" transform="matrix(5.61896e-17 -0.918421 0.917647 5.6237e-17 20.1882 150)">(</text><text fill="#3D3D3A" font-family="Segoe UI,Segoe UI_MSFontService,sans-serif" font-weight="400" font-size="11" transform="matrix(5.61896e-17 -0.918421 0.917647 5.6237e-17 20.1882 147)">units</text><text fill="#3D3D3A" font-family="Segoe UI,Segoe UI_MSFontService,sans-serif" font-weight="400" font-size="11" transform="matrix(5.61896e-17 -0.918421 0.917647 5.6237e-17 20.1882 125)">)</text><path d="M146.824 307.412 165.176 307.412" stroke="#0F6E56" stroke-width="1.83529" fill="none" transform="scale(1 1.00084)"/><text fill="#141413" font-family="Segoe UI,Segoe UI_MSFontService,sans-serif" font-weight="400" font-size="11" transform="matrix(0.917647 0 0 0.918421 170.682 310)">Observed</text><path d="M247.765 307.412 266.118 307.412" stroke="#0F6E56" stroke-width="1.83529" stroke-dasharray="4.58824 2.75294" fill="none" transform="scale(1 1.00084)"/><text fill="#141413" font-family="Segoe UI,Segoe UI_MSFontService,sans-serif" font-weight="400" font-size="11" transform="matrix(0.917647 0 0 0.918421 271.624 310)">Forecast</text><path d="M348.706 301.906 367.059 301.906 367.059 312 348.706 312Z" fill="#1D9E75" fill-opacity="0.22" transform="scale(1 1.00084)"/><text fill="#141413" font-family="Segoe UI,Segoe UI_MSFontService,sans-serif" font-weight="400" font-size="11" transform="matrix(0.917647 0 0 0.918421 372.565 310)">95</text><text fill="#141413" font-family="Segoe UI,Segoe UI_MSFontService,sans-serif" font-weight="400" font-size="11" transform="matrix(0.917647 0 0 0.918421 383.447 310)">% </text><text fill="#141413" font-family="Segoe UI,Segoe UI_MSFontService,sans-serif" font-weight="400" font-size="11" transform="matrix(0.917647 0 0 0.918421 394.473 310)">prediction interval</text><text fill="#3D3D3A" font-family="Segoe UI,Segoe UI_MSFontService,sans-serif" font-weight="400" font-size="11" transform="matrix(0.917647 0 0 0.918421 181.708 332)">Band widens with horizon </text><text fill="#3D3D3A" font-family="Segoe UI,Segoe UI_MSFontService,sans-serif" font-weight="400" font-size="11" transform="matrix(0.917647 0 0 0.918421 298.949 332)">— </text><text fill="#3D3D3A" font-family="Segoe UI,Segoe UI_MSFontService,sans-serif" font-weight="400" font-size="11" transform="matrix(0.917647 0 0 0.918421 311.808 332)">uncertainty grows further out</text></g></svg>